# xmcd
#
# Track frame offsets: 
#        150
#        10591
#        27779
#        42875
#        46859
#        65328
#        85276
#        104126
#        121177
#        136023
#        152600
#        167165
#        185285
#        206231
#
# Disc length: 3046 seconds
#
# Revision: 1
# Processed by: cddbd v1.5.2PL0 Copyright (c) Steve Scherf et al.
# Submitted via: ExactAudioCopy v0.99pb4
#
DISCID=af0be40e
DTITLE=Dan Auerbach - Keep It Hid
DYEAR=2009
DGENRE=Indie
TTITLE0=Trouble Weighs A Ton
TTITLE1=I Want Some More
TTITLE2=Heartbroken, In Disrepair
TTITLE3=Because I Should
TTITLE4=Whispered Words (Pretty Lies)
TTITLE5=Real Desire
TTITLE6=When The Night Comes
TTITLE7=Mean Monsoon
TTITLE8=The Prowl
TTITLE9=Keep It Hid
TTITLE10=My Last Mistake
TTITLE11=When I Left The Room
TTITLE12=Street Walkin'
TTITLE13=Goin' Home
EXTD=
EXTT0=
EXTT1=
EXTT2=
EXTT3=
EXTT4=
EXTT5=
EXTT6=
EXTT7=
EXTT8=
EXTT9=
EXTT10=
EXTT11=
EXTT12=
EXTT13=
PLAYORDER=
